<svg xmlns="http://www.w3.org/2000/svg" xmlns:xlink="http://www.w3.org/1999/xlink" width="500" zoomAndPan="magnify" viewBox="0 0 375 374.999991" height="500" preserveAspectRatio="xMidYMid meet" version="1.0"><defs><g/><clipPath id="05f18c2577"><path d="M 147.621094 139.902344 L 224.589844 139.902344 L 224.589844 216.871094 L 147.621094 216.871094 Z M 147.621094 139.902344 " clip-rule="nonzero"/></clipPath><clipPath id="f20e44260e"><path d="M 186.105469 139.902344 C 164.851562 139.902344 147.621094 157.132812 147.621094 178.386719 C 147.621094 199.640625 164.851562 216.871094 186.105469 216.871094 C 207.359375 216.871094 224.589844 199.640625 224.589844 178.386719 C 224.589844 157.132812 207.359375 139.902344 186.105469 139.902344 Z M 186.105469 139.902344 " clip-rule="nonzero"/></clipPath></defs><path stroke-linecap="butt" transform="matrix(0.575116, -0.481396, 0.481396, 0.575116, 289.938355, 197.803141)" fill="none" stroke-linejoin="miter" d="M -0.00257122 7.499027 L 41.795571 7.499634 " stroke="#222755" stroke-width="15" stroke-opacity="1" stroke-miterlimit="4"/><path stroke-linecap="round" transform="matrix(0.575116, -0.481396, 0.481396, 0.575116, 289.938355, 197.803141)" fill="none" stroke-linejoin="round" d="M 11.792651 -14.999086 L 41.795571 7.499634 L 11.795053 30.000659 " stroke="#222755" stroke-width="15" stroke-opacity="1" stroke-miterlimit="4"/><path stroke-linecap="butt" transform="matrix(0.749644, 0.0231038, -0.0231038, 0.749644, 38.372207, 200.213044)" fill="none" stroke-linejoin="miter" d="M 3.034199 6.860104 C 73.549357 38.051645 144.061982 38.051376 214.577281 6.859136 " stroke="#222755" stroke-width="15" stroke-opacity="1" stroke-miterlimit="4"/><g clip-path="url(#05f18c2577)"><g clip-path="url(#f20e44260e)"><path stroke-linecap="butt" transform="matrix(0.75, 0, 0, 0.75, 147.621909, 139.901372)" fill="none" stroke-linejoin="miter" d="M 51.311413 0.00129618 C 22.972871 0.00129618 -0.00108727 22.975255 -0.00108727 51.313796 C -0.00108727 79.652338 22.972871 102.626296 51.311413 102.626296 C 79.649955 102.626296 102.623913 79.652338 102.623913 51.313796 C 102.623913 22.975255 79.649955 0.00129618 51.311413 0.00129618 Z M 51.311413 0.00129618 " stroke="#222755" stroke-width="28" stroke-opacity="1" stroke-miterlimit="4"/></g></g><path stroke-linecap="butt" transform="matrix(0.746701, -0.0702663, 0.0702663, 0.746701, 181.944074, 207.312438)" fill="none" stroke-linejoin="miter" d="M 4.042088 6.318028 C 52.792324 37.512147 101.538057 37.511342 150.284474 6.316101 " stroke="#222755" stroke-width="15" stroke-opacity="1" stroke-miterlimit="4"/><g fill="#000000" fill-opacity="1"><g transform="translate(297.116774, 165.160319)"><g><path d="M 2.59375 1.953125 C 2.125 1.140625 1.769531 0.300781 1.53125 -0.5625 C 1.289062 -1.425781 1.160156 -2.304688 1.140625 -3.203125 C 1.117188 -3.804688 1.144531 -4.40625 1.21875 -5 C 1.300781 -5.59375 1.425781 -6.175781 1.59375 -6.75 C 1.769531 -7.320312 2 -7.894531 2.28125 -8.46875 C 2.34375 -8.570312 2.421875 -8.632812 2.515625 -8.65625 C 2.609375 -8.6875 2.703125 -8.679688 2.796875 -8.640625 C 2.898438 -8.609375 2.96875 -8.539062 3 -8.4375 C 3.039062 -8.34375 3.039062 -8.21875 3 -8.0625 C 2.800781 -7.53125 2.632812 -6.992188 2.5 -6.453125 C 2.375 -5.921875 2.28125 -5.390625 2.21875 -4.859375 C 2.164062 -4.328125 2.148438 -3.785156 2.171875 -3.234375 C 2.179688 -2.691406 2.234375 -2.15625 2.328125 -1.625 C 2.429688 -1.101562 2.5625 -0.582031 2.71875 -0.0625 C 2.882812 0.457031 3.070312 0.988281 3.28125 1.53125 C 3.351562 1.6875 3.367188 1.8125 3.328125 1.90625 C 3.285156 2.007812 3.21875 2.078125 3.125 2.109375 C 3.03125 2.148438 2.929688 2.160156 2.828125 2.140625 C 2.734375 2.128906 2.65625 2.066406 2.59375 1.953125 Z M 2.59375 1.953125 "/></g></g></g><g fill="#000000" fill-opacity="1"><g transform="translate(300.937628, 165.045237)"><g><path d="M 2.890625 0.015625 C 2.535156 0.0234375 2.171875 -0.00390625 1.796875 -0.078125 C 1.429688 -0.148438 1.085938 -0.296875 0.765625 -0.515625 C 0.679688 -0.554688 0.617188 -0.613281 0.578125 -0.6875 C 0.546875 -0.769531 0.535156 -0.847656 0.546875 -0.921875 C 0.566406 -1.003906 0.601562 -1.070312 0.65625 -1.125 C 0.707031 -1.175781 0.769531 -1.210938 0.84375 -1.234375 C 0.914062 -1.253906 1.003906 -1.238281 1.109375 -1.1875 C 1.421875 -1.007812 1.722656 -0.882812 2.015625 -0.8125 C 2.316406 -0.75 2.613281 -0.722656 2.90625 -0.734375 C 3.363281 -0.742188 3.707031 -0.832031 3.9375 -1 C 4.164062 -1.175781 4.273438 -1.410156 4.265625 -1.703125 C 4.253906 -1.929688 4.171875 -2.109375 4.015625 -2.234375 C 3.859375 -2.359375 3.613281 -2.453125 3.28125 -2.515625 L 2.171875 -2.734375 C 1.671875 -2.828125 1.289062 -2.992188 1.03125 -3.234375 C 0.78125 -3.484375 0.648438 -3.8125 0.640625 -4.21875 C 0.628906 -4.582031 0.710938 -4.898438 0.890625 -5.171875 C 1.066406 -5.441406 1.320312 -5.65625 1.65625 -5.8125 C 2 -5.96875 2.398438 -6.050781 2.859375 -6.0625 C 3.210938 -6.070312 3.550781 -6.035156 3.875 -5.953125 C 4.195312 -5.867188 4.492188 -5.726562 4.765625 -5.53125 C 4.847656 -5.488281 4.898438 -5.425781 4.921875 -5.34375 C 4.953125 -5.269531 4.957031 -5.191406 4.9375 -5.109375 C 4.925781 -5.035156 4.890625 -4.96875 4.828125 -4.90625 C 4.773438 -4.851562 4.707031 -4.820312 4.625 -4.8125 C 4.550781 -4.8125 4.472656 -4.835938 4.390625 -4.890625 C 4.128906 -5.046875 3.875 -5.15625 3.625 -5.21875 C 3.375 -5.289062 3.128906 -5.320312 2.890625 -5.3125 C 2.441406 -5.300781 2.101562 -5.203125 1.875 -5.015625 C 1.644531 -4.828125 1.535156 -4.59375 1.546875 -4.3125 C 1.546875 -4.082031 1.617188 -3.894531 1.765625 -3.75 C 1.921875 -3.613281 2.148438 -3.519531 2.453125 -3.46875 L 3.578125 -3.265625 C 4.097656 -3.171875 4.492188 -3.003906 4.765625 -2.765625 C 5.035156 -2.523438 5.175781 -2.195312 5.1875 -1.78125 C 5.195312 -1.25 4.992188 -0.820312 4.578125 -0.5 C 4.160156 -0.175781 3.597656 -0.00390625 2.890625 0.015625 Z M 2.890625 0.015625 "/></g></g></g><g fill="#000000" fill-opacity="1"><g transform="translate(306.73521, 164.870615)"><g><path d="M 3.40625 0 C 2.8125 0.0195312 2.300781 -0.0859375 1.875 -0.328125 C 1.445312 -0.566406 1.109375 -0.914062 0.859375 -1.375 C 0.617188 -1.832031 0.488281 -2.367188 0.46875 -2.984375 C 0.457031 -3.453125 0.507812 -3.875 0.625 -4.25 C 0.738281 -4.625 0.914062 -4.941406 1.15625 -5.203125 C 1.394531 -5.472656 1.6875 -5.679688 2.03125 -5.828125 C 2.375 -5.972656 2.769531 -6.054688 3.21875 -6.078125 C 3.5 -6.078125 3.800781 -6.035156 4.125 -5.953125 C 4.445312 -5.878906 4.738281 -5.738281 5 -5.53125 C 5.082031 -5.476562 5.132812 -5.410156 5.15625 -5.328125 C 5.1875 -5.242188 5.191406 -5.164062 5.171875 -5.09375 C 5.148438 -5.019531 5.109375 -4.957031 5.046875 -4.90625 C 4.992188 -4.851562 4.925781 -4.816406 4.84375 -4.796875 C 4.757812 -4.785156 4.675781 -4.8125 4.59375 -4.875 C 4.375 -5.039062 4.15625 -5.148438 3.9375 -5.203125 C 3.71875 -5.253906 3.507812 -5.28125 3.3125 -5.28125 C 2.988281 -5.269531 2.710938 -5.207031 2.484375 -5.09375 C 2.265625 -4.988281 2.078125 -4.835938 1.921875 -4.640625 C 1.765625 -4.453125 1.644531 -4.222656 1.5625 -3.953125 C 1.488281 -3.679688 1.457031 -3.363281 1.46875 -3 C 1.488281 -2.300781 1.671875 -1.753906 2.015625 -1.359375 C 2.359375 -0.960938 2.835938 -0.773438 3.453125 -0.796875 C 3.648438 -0.796875 3.851562 -0.828125 4.0625 -0.890625 C 4.269531 -0.960938 4.484375 -1.085938 4.703125 -1.265625 C 4.785156 -1.328125 4.867188 -1.351562 4.953125 -1.34375 C 5.035156 -1.34375 5.101562 -1.316406 5.15625 -1.265625 C 5.207031 -1.210938 5.242188 -1.144531 5.265625 -1.0625 C 5.285156 -0.988281 5.285156 -0.910156 5.265625 -0.828125 C 5.253906 -0.753906 5.207031 -0.691406 5.125 -0.640625 C 4.875 -0.421875 4.59375 -0.257812 4.28125 -0.15625 C 3.976562 -0.0507812 3.6875 0 3.40625 0 Z M 3.40625 0 "/></g></g></g><g fill="#000000" fill-opacity="1"><g transform="translate(312.315839, 164.702529)"><g><path d="M 1.40625 0.03125 C 1.25 0.0390625 1.128906 0.00390625 1.046875 -0.078125 C 0.960938 -0.171875 0.914062 -0.296875 0.90625 -0.453125 L 0.75 -5.484375 C 0.75 -5.640625 0.785156 -5.757812 0.859375 -5.84375 C 0.941406 -5.9375 1.0625 -5.988281 1.21875 -6 C 1.363281 -6 1.476562 -5.957031 1.5625 -5.875 C 1.65625 -5.789062 1.703125 -5.671875 1.703125 -5.515625 L 1.734375 -4.53125 L 1.609375 -4.515625 C 1.722656 -5.003906 1.957031 -5.378906 2.3125 -5.640625 C 2.675781 -5.910156 3.117188 -6.0625 3.640625 -6.09375 C 3.753906 -6.113281 3.847656 -6.09375 3.921875 -6.03125 C 4.003906 -5.96875 4.050781 -5.863281 4.0625 -5.71875 C 4.082031 -5.582031 4.054688 -5.472656 3.984375 -5.390625 C 3.910156 -5.316406 3.796875 -5.265625 3.640625 -5.234375 L 3.453125 -5.21875 C 2.898438 -5.144531 2.484375 -4.953125 2.203125 -4.640625 C 1.921875 -4.335938 1.789062 -3.925781 1.8125 -3.40625 L 1.890625 -0.484375 C 1.898438 -0.328125 1.863281 -0.203125 1.78125 -0.109375 C 1.695312 -0.015625 1.570312 0.03125 1.40625 0.03125 Z M 1.40625 0.03125 "/></g></g></g><g fill="#000000" fill-opacity="1"><g transform="translate(316.630884, 164.572561)"><g><path d="M 3.359375 0.015625 C 2.785156 0.0234375 2.285156 -0.0820312 1.859375 -0.3125 C 1.441406 -0.550781 1.109375 -0.894531 0.859375 -1.34375 C 0.617188 -1.789062 0.488281 -2.328125 0.46875 -2.953125 C 0.457031 -3.410156 0.507812 -3.828125 0.625 -4.203125 C 0.738281 -4.585938 0.914062 -4.914062 1.15625 -5.1875 C 1.394531 -5.457031 1.679688 -5.664062 2.015625 -5.8125 C 2.359375 -5.96875 2.742188 -6.050781 3.171875 -6.0625 C 3.734375 -6.082031 4.226562 -5.972656 4.65625 -5.734375 C 5.09375 -5.503906 5.429688 -5.164062 5.671875 -4.71875 C 5.921875 -4.269531 6.050781 -3.738281 6.0625 -3.125 C 6.082031 -2.65625 6.03125 -2.234375 5.90625 -1.859375 C 5.789062 -1.484375 5.609375 -1.15625 5.359375 -0.875 C 5.117188 -0.601562 4.832031 -0.390625 4.5 -0.234375 C 4.164062 -0.0859375 3.785156 -0.00390625 3.359375 0.015625 Z M 3.34375 -0.765625 C 3.695312 -0.773438 4.007812 -0.875 4.28125 -1.0625 C 4.550781 -1.25 4.753906 -1.515625 4.890625 -1.859375 C 5.023438 -2.203125 5.082031 -2.613281 5.0625 -3.09375 C 5.039062 -3.820312 4.863281 -4.375 4.53125 -4.75 C 4.195312 -5.125 3.753906 -5.300781 3.203125 -5.28125 C 2.828125 -5.269531 2.503906 -5.175781 2.234375 -5 C 1.972656 -4.820312 1.773438 -4.5625 1.640625 -4.21875 C 1.503906 -3.882812 1.441406 -3.472656 1.453125 -2.984375 C 1.472656 -2.253906 1.65625 -1.695312 2 -1.3125 C 2.34375 -0.9375 2.789062 -0.753906 3.34375 -0.765625 Z M 3.34375 -0.765625 "/></g></g></g><g fill="#000000" fill-opacity="1"><g transform="translate(323.332459, 164.370712)"><g><path d="M 2.703125 0.03125 C 2.117188 0.0390625 1.671875 -0.125 1.359375 -0.46875 C 1.046875 -0.8125 0.878906 -1.3125 0.859375 -1.96875 L 0.671875 -8.125 C 0.671875 -8.28125 0.707031 -8.398438 0.78125 -8.484375 C 0.851562 -8.578125 0.972656 -8.628906 1.140625 -8.640625 C 1.285156 -8.640625 1.40625 -8.597656 1.5 -8.515625 C 1.59375 -8.429688 1.640625 -8.3125 1.640625 -8.15625 L 1.828125 -2.078125 C 1.835938 -1.640625 1.929688 -1.316406 2.109375 -1.109375 C 2.296875 -0.898438 2.5625 -0.800781 2.90625 -0.8125 C 2.976562 -0.8125 3.039062 -0.816406 3.09375 -0.828125 C 3.15625 -0.835938 3.210938 -0.84375 3.265625 -0.84375 C 3.347656 -0.863281 3.40625 -0.847656 3.4375 -0.796875 C 3.476562 -0.742188 3.5 -0.644531 3.5 -0.5 C 3.507812 -0.363281 3.484375 -0.253906 3.421875 -0.171875 C 3.359375 -0.0976562 3.253906 -0.046875 3.109375 -0.015625 C 3.046875 -0.015625 2.976562 -0.0078125 2.90625 0 C 2.832031 0.0195312 2.765625 0.03125 2.703125 0.03125 Z M 2.703125 0.03125 "/></g></g></g><g fill="#000000" fill-opacity="1"><g transform="translate(326.900207, 164.263253)"><g><path d="M 2.703125 0.03125 C 2.117188 0.0390625 1.671875 -0.125 1.359375 -0.46875 C 1.046875 -0.8125 0.878906 -1.3125 0.859375 -1.96875 L 0.671875 -8.125 C 0.671875 -8.28125 0.707031 -8.398438 0.78125 -8.484375 C 0.851562 -8.578125 0.972656 -8.628906 1.140625 -8.640625 C 1.285156 -8.640625 1.40625 -8.597656 1.5 -8.515625 C 1.59375 -8.429688 1.640625 -8.3125 1.640625 -8.15625 L 1.828125 -2.078125 C 1.835938 -1.640625 1.929688 -1.316406 2.109375 -1.109375 C 2.296875 -0.898438 2.5625 -0.800781 2.90625 -0.8125 C 2.976562 -0.8125 3.039062 -0.816406 3.09375 -0.828125 C 3.15625 -0.835938 3.210938 -0.84375 3.265625 -0.84375 C 3.347656 -0.863281 3.40625 -0.847656 3.4375 -0.796875 C 3.476562 -0.742188 3.5 -0.644531 3.5 -0.5 C 3.507812 -0.363281 3.484375 -0.253906 3.421875 -0.171875 C 3.359375 -0.0976562 3.253906 -0.046875 3.109375 -0.015625 C 3.046875 -0.015625 2.976562 -0.0078125 2.90625 0 C 2.832031 0.0195312 2.765625 0.03125 2.703125 0.03125 Z M 2.703125 0.03125 "/></g></g></g><g fill="#000000" fill-opacity="1"><g transform="translate(330.467954, 164.155794)"><g><path d="M 1.359375 2 C 1.296875 2.113281 1.21875 2.179688 1.125 2.203125 C 1.03125 2.222656 0.929688 2.210938 0.828125 2.171875 C 0.734375 2.140625 0.664062 2.078125 0.625 1.984375 C 0.582031 1.890625 0.585938 1.765625 0.640625 1.609375 C 0.847656 1.054688 1.015625 0.515625 1.140625 -0.015625 C 1.265625 -0.546875 1.351562 -1.078125 1.40625 -1.609375 C 1.457031 -2.140625 1.476562 -2.675781 1.46875 -3.21875 C 1.445312 -3.769531 1.390625 -4.304688 1.296875 -4.828125 C 1.203125 -5.359375 1.078125 -5.882812 0.921875 -6.40625 C 0.765625 -6.9375 0.578125 -7.460938 0.359375 -7.984375 C 0.285156 -8.140625 0.269531 -8.265625 0.3125 -8.359375 C 0.363281 -8.460938 0.429688 -8.535156 0.515625 -8.578125 C 0.597656 -8.617188 0.691406 -8.628906 0.796875 -8.609375 C 0.898438 -8.585938 0.984375 -8.523438 1.046875 -8.421875 C 1.515625 -7.617188 1.863281 -6.78125 2.09375 -5.90625 C 2.332031 -5.039062 2.46875 -4.15625 2.5 -3.25 C 2.519531 -2.644531 2.488281 -2.046875 2.40625 -1.453125 C 2.332031 -0.859375 2.207031 -0.273438 2.03125 0.296875 C 1.863281 0.878906 1.640625 1.445312 1.359375 2 Z M 1.359375 2 "/></g></g></g></svg>