<svg xmlns="http://www.w3.org/2000/svg" xmlns:xlink="http://www.w3.org/1999/xlink" width="500" zoomAndPan="magnify" viewBox="0 0 375 374.999991" height="500" preserveAspectRatio="xMidYMid meet" version="1.0"><defs><clipPath id="83291b6538"><path d="M 151.316406 139.902344 L 228.285156 139.902344 L 228.285156 216.871094 L 151.316406 216.871094 Z M 151.316406 139.902344 " clip-rule="nonzero"/></clipPath><clipPath id="cbb6dfc836"><path d="M 189.800781 139.902344 C 168.546875 139.902344 151.316406 157.132812 151.316406 178.386719 C 151.316406 199.640625 168.546875 216.871094 189.800781 216.871094 C 211.054688 216.871094 228.285156 199.640625 228.285156 178.386719 C 228.285156 157.132812 211.054688 139.902344 189.800781 139.902344 Z M 189.800781 139.902344 " clip-rule="nonzero"/></clipPath></defs><rect x="-37.5" width="450" fill="#ffffff" y="-37.499999" height="449.999989" fill-opacity="1"/><rect x="-37.5" width="450" fill="#ffffff" y="-37.499999" height="449.999989" fill-opacity="1"/><path stroke-linecap="butt" transform="matrix(0.575116, -0.481396, 0.481396, 0.575116, 293.634067, 197.803141)" fill="none" stroke-linejoin="miter" d="M 0.00101442 7.502028 L 41.795162 7.499293 " stroke="#222755" stroke-width="15" stroke-opacity="1" stroke-miterlimit="4"/><path stroke-linecap="round" transform="matrix(0.575116, -0.481396, 0.481396, 0.575116, 293.634067, 197.803141)" fill="none" stroke-linejoin="round" d="M 11.792243 -14.999428 L 41.795162 7.499293 L 11.794645 30.000318 " stroke="#222755" stroke-width="15" stroke-opacity="1" stroke-miterlimit="4"/><path stroke-linecap="butt" transform="matrix(0.749644, 0.0231038, -0.0231038, 0.749644, 46.665837, 196.257789)" fill="none" stroke-linejoin="miter" d="M 3.033244 6.857764 C 73.548403 38.049305 144.061028 38.049035 214.576327 6.856796 " stroke="#222755" stroke-width="15" stroke-opacity="1" stroke-miterlimit="4"/><g clip-path="url(#83291b6538)"><g clip-path="url(#cbb6dfc836)"><path stroke-linecap="butt" transform="matrix(0.75, 0, 0, 0.75, 151.31765, 139.901372)" fill="none" stroke-linejoin="miter" d="M 51.310842 0.00129618 C 22.9723 0.00129618 -0.00165802 22.975255 -0.00165802 51.313796 C -0.00165802 79.652338 22.9723 102.626296 51.310842 102.626296 C 79.649384 102.626296 102.623342 79.652338 102.623342 51.313796 C 102.623342 22.975255 79.649384 0.00129618 51.310842 0.00129618 Z M 51.310842 0.00129618 " stroke="#222755" stroke-width="28" stroke-opacity="1" stroke-miterlimit="4"/></g></g><path stroke-linecap="butt" transform="matrix(0.746701, -0.0702663, 0.0702663, 0.746701, 185.639788, 207.312438)" fill="none" stroke-linejoin="miter" d="M 4.041555 6.317978 C 52.791791 37.512097 101.537524 37.511292 150.289126 6.316538 " stroke="#222755" stroke-width="15" stroke-opacity="1" stroke-miterlimit="4"/></svg>